<svg xmlns="http://www.w3.org/2000/svg" xmlns:xlink="http://www.w3.org/1999/xlink" version="1.1" x="0px" y="0px" viewBox="0 0 100 125" style="enable-background:new 0 0 100 100;" xml:space="preserve"><path d="M84.6,51.2C76,65,65.6,77.3,53.4,88c-1.7,1.5,0.5,4.4,2.2,2.9C68,80,78.7,67.4,87.5,53.4C88.7,51.4,85.8,49.2,84.6,51.2z"/><path d="M67.2,19.1c-0.3-2.3-3.9-1.8-3.6,0.5c1.7,12.2,2.1,24.4,1,36.6c-0.2,2.3,3.4,2.8,3.6,0.5C69.3,44.1,69,31.5,67.2,19.1z"/><path d="M43.7,57c-1.8-11.5-5-22.6-9.5-33.3c-0.9-2.1-4.2-0.8-3.3,1.4c4.4,10.4,7.4,21.3,9.2,32.4C40.5,59.8,44.1,59.3,43.7,57z"/><path d="M31.6,26c11.9,1,23.6-1.1,34.3-6.2c2.1-1,0.7-4.3-1.4-3.3c-10.2,4.9-21.2,6.9-32.5,6C29.7,22.2,29.2,25.8,31.6,26z"/><path d="M40.9,55.3c-7-0.6-14.1-1.3-21.1-1.9c-2.6-0.2-3.2,3.3-0.5,3.6c7,0.6,14.1,1.3,21.1,1.9C43,59.1,43.5,55.5,40.9,55.3z"/><path d="M85,50.9c-6.4,1.6-12.8,3.2-19.3,4.7c-2.5,0.6-0.9,3.9,1.5,3.3c6.4-1.6,12.8-3.2,19.3-4.7C89,53.7,87.4,50.3,85,50.9z"/><path d="M55,87.7c-11.6-11-23.2-21.9-34.8-32.9c-1.7-1.6-3.8,1.3-2.2,2.9c11.6,11,23.2,21.9,34.8,32.9C54.5,92.2,56.7,89.3,55,87.7z  "/><text x="0" y="115" fill="#000000" font-size="5px" font-weight="bold" font-family="'Helvetica Neue', Helvetica, Arial-Unicode, Arial, Sans-serif">Created by Kalinin Ilya</text><text x="0" y="120" fill="#000000" font-size="5px" font-weight="bold" font-family="'Helvetica Neue', Helvetica, Arial-Unicode, Arial, Sans-serif">from the Noun Project</text></svg>