<svg width="24" height="24" viewBox="0 0 24 24" fill="none" xmlns="http://www.w3.org/2000/svg">
<g clip-path="url(#clip0_339_29883)">
<path d="M7.99159 24C10.1939 24 11.9812 22.208 11.9812 20V16H7.99159C5.78931 16 4.00195 17.792 4.00195 20C4.00195 22.208 5.78931 24 7.99159 24Z" fill="#0ACF83"/>
<path d="M4.00195 12C4.00195 9.792 5.78931 8 7.99159 8H11.9812V16H7.99159C5.78931 16 4.00195 14.208 4.00195 12Z" fill="#A259FF"/>
<path d="M4.00195 4C4.00195 1.792 5.78931 0 7.99159 0H11.9812V8H7.99159C5.78931 8 4.00195 6.208 4.00195 4Z" fill="#F24E1E"/>
<path d="M11.9805 0H15.9701C18.1724 0 19.9597 1.792 19.9597 4C19.9597 6.208 18.1724 8 15.9701 8H11.9805V0Z" fill="#FF7262"/>
<path d="M19.9597 12C19.9597 14.208 18.1724 16 15.9701 16C13.7678 16 11.9805 14.208 11.9805 12C11.9805 9.792 13.7678 8 15.9701 8C18.1724 8 19.9597 9.792 19.9597 12Z" fill="#1ABCFE"/>
</g>
<defs>
<clipPath id="clip0_339_29883">
<rect width="24" height="24" fill="white"/>
</clipPath>
</defs>
</svg>
