<svg width="24" height="24" viewBox="0 0 24 24" fill="none" xmlns="http://www.w3.org/2000/svg">
<g clip-path="url(#clip0_339_29894)">
<rect width="24" height="24" rx="4" fill="#FF3C00"/>
<path d="M10.968 10.752C12.456 9.93602 14.472 8.80802 14.472 5.52002H12C12 7.34402 11.112 7.84802 9.74399 8.59202C8.25599 9.40802 6.23999 10.536 6.23999 13.824H8.68799C8.71199 12 9.59999 11.52 10.968 10.752Z" fill="white"/>
<path d="M15.2161 10.0083C15.2161 11.8323 14.3281 12.3363 12.9601 13.0803C11.4721 13.8963 9.45605 15.0243 9.45605 18.3123H11.9041C11.9041 16.4883 12.7921 15.9843 14.1601 15.2403C15.6481 14.4243 17.6641 13.2963 17.6641 10.0083H15.2161Z" fill="white"/>
</g>
<defs>
<clipPath id="clip0_339_29894">
<rect width="24" height="24" fill="white"/>
</clipPath>
</defs>
</svg>
